<svg width="170.000000" height="34.000000" viewBox="0 0 170 34" fill="none" xmlns="http://www.w3.org/2000/svg" xmlns:xlink="http://www.w3.org/1999/xlink">
	<desc>
			Created with Pixso.
	</desc>
	<defs/>
	<path id="Alex. Shevtsov" d="M64.36 23.17C63.34 22.44 62.82 21.39 62.81 20.03L62.81 19.76L65.46 19.76L65.46 19.98C65.47 20.74 65.73 21.31 66.23 21.69Q66.99 22.26 68.37 22.26Q69.75 22.26 70.48 21.71Q70.85 21.43 71.04 21.06Q71.21 20.7 71.21 20.25Q71.21 19.79 71.02 19.44Q70.85 19.12 70.51 18.88C70.05 18.55 69.09 18.19 67.63 17.8Q65.29 17.18 64.17 16.22C63.44 15.58 63.07 14.68 63.07 13.53C63.07 12.32 63.53 11.35 64.46 10.61C65.39 9.86 66.66 9.49 68.27 9.49Q70.64 9.49 72.07 10.65Q72.08 10.66 72.09 10.67Q72.1 10.68 72.11 10.68C73.07 11.48 73.55 12.47 73.56 13.66L73.56 13.92L70.94 13.92L70.94 13.71C70.94 13.05 70.72 12.53 70.28 12.13Q69.61 11.53 68.28 11.53C67.4 11.53 66.75 11.7 66.33 12.02C65.91 12.35 65.71 12.79 65.71 13.36C65.71 13.89 65.93 14.3 66.37 14.6C66.82 14.89 67.77 15.24 69.23 15.63Q71.55 16.24 72.69 17.24C73.46 17.9 73.84 18.85 73.85 20.09C73.85 21.38 73.36 22.41 72.37 23.16Q70.88 24.28 68.38 24.28C66.73 24.28 65.39 23.91 64.36 23.17ZM130.03 23.17C129.01 22.44 128.49 21.39 128.49 20.03L128.49 19.76L131.13 19.76L131.13 19.98C131.14 20.74 131.4 21.31 131.91 21.69Q132.67 22.26 134.04 22.26Q135.42 22.26 136.15 21.71Q136.53 21.43 136.71 21.06Q136.89 20.7 136.89 20.25Q136.89 19.79 136.69 19.44Q136.52 19.12 136.18 18.88C135.72 18.55 134.76 18.19 133.3 17.8Q130.96 17.18 129.84 16.22C129.11 15.58 128.74 14.68 128.74 13.53C128.74 12.32 129.2 11.35 130.13 10.61C131.06 9.86 132.33 9.49 133.95 9.49Q136.32 9.49 137.75 10.65Q137.76 10.67 137.78 10.68C138.74 11.48 139.22 12.47 139.23 13.66L139.23 13.92L136.61 13.92L136.61 13.71C136.61 13.05 136.39 12.53 135.95 12.13Q135.28 11.53 133.96 11.53C133.07 11.53 132.42 11.7 132 12.02C131.59 12.35 131.38 12.79 131.38 13.36C131.38 13.89 131.6 14.3 132.04 14.6C132.49 14.89 133.44 15.24 134.9 15.63Q137.22 16.24 138.36 17.24C139.13 17.9 139.52 18.85 139.52 20.09C139.52 21.38 139.03 22.41 138.04 23.16Q136.55 24.28 134.05 24.28C132.4 24.28 131.06 23.91 130.03 23.17ZM143.33 22.5C142.14 21.32 141.55 19.58 141.55 17.29L141.55 16.48C141.55 14.19 142.14 12.46 143.33 11.27C144.52 10.09 146.05 9.49 147.92 9.49C149.78 9.49 151.31 10.09 152.5 11.27C153.7 12.46 154.3 14.19 154.3 16.48L154.3 17.29C154.3 19.58 153.7 21.32 152.5 22.5C151.31 23.69 149.78 24.28 147.92 24.28C146.05 24.28 144.52 23.69 143.33 22.5ZM2.51 24L0 24L5.42 9.71L8.13 9.71L13.6 24L10.8 24L9.59 20.67L3.72 20.67L2.51 24ZM24.51 24L15.35 24L15.35 9.78L17.99 9.78L17.99 21.93L24.51 21.93L24.51 24ZM36.39 24L26.76 24L26.76 9.78L36.28 9.78L36.28 11.84L29.38 11.84L29.38 15.68L35.37 15.68L35.37 17.69L29.38 17.69L29.38 21.95L36.39 21.95L36.39 24ZM40.19 24L37.45 24L42.18 16.75L37.66 9.78L40.7 9.79L43.82 14.79L46.88 9.78L49.57 9.78L45.13 16.77L49.91 24L46.84 24L43.5 18.73L40.19 24ZM79.06 24L76.42 24L76.42 9.78L79.06 9.78L79.06 15.63L85.38 15.63L85.38 9.78L88.02 9.78L88.02 24L85.38 24L85.38 17.71L79.06 17.71L79.06 24ZM101.06 24L91.43 24L91.43 9.78L100.95 9.78L100.95 11.84L94.04 11.84L94.04 15.68L100.03 15.68L100.03 17.69L94.04 17.69L94.04 21.95L101.06 21.95L101.06 24ZM107.23 24.06L101.91 9.78L104.75 9.78L108.31 19.75C108.38 19.94 108.45 20.15 108.5 20.36C108.56 20.57 108.61 20.79 108.65 21.01L108.73 21.01C108.77 20.79 108.82 20.57 108.88 20.35C108.94 20.14 109 19.94 109.06 19.75L112.7 9.78L115.28 9.78L109.96 24.06L107.23 24.06ZM120.2 11.84L115.76 11.84L115.76 9.78L127.28 9.78L127.28 11.84L122.84 11.84L122.84 24L120.2 24L120.2 11.84ZM160.72 24.06L155.4 9.78L158.24 9.78L161.81 19.75C161.88 19.94 161.94 20.15 161.99 20.36C162.05 20.57 162.1 20.79 162.15 21.01L162.23 21.01C162.27 20.79 162.31 20.57 162.37 20.35C162.43 20.14 162.49 19.94 162.56 19.75L166.19 9.78L168.77 9.78L163.46 24.06L160.72 24.06ZM144.27 16.25L144.27 17.52Q144.27 19.87 145.26 21.06C145.93 21.84 146.81 22.23 147.92 22.23Q148.95 22.23 149.72 21.78Q150.2 21.51 150.59 21.06C151.26 20.27 151.59 19.09 151.59 17.53L151.59 16.25C151.59 14.68 151.26 13.51 150.59 12.73Q150.2 12.28 149.72 12Q148.95 11.55 147.92 11.55Q146.89 11.55 146.12 12Q145.64 12.28 145.25 12.73C144.6 13.51 144.27 14.68 144.27 16.25ZM6.25 13.74L4.44 18.7L8.87 18.7L7.07 13.74C6.98 13.51 6.91 13.28 6.85 13.07C6.79 12.85 6.74 12.64 6.69 12.43L6.62 12.43C6.56 12.64 6.51 12.85 6.45 13.07Q6.37 13.39 6.25 13.74ZM52.12 23.75C51.84 23.45 51.7 23.09 51.7 22.66C51.7 22.23 51.84 21.86 52.12 21.56C52.41 21.26 52.82 21.1 53.34 21.1C53.87 21.1 54.27 21.26 54.55 21.56C54.83 21.86 54.97 22.23 54.97 22.66C54.97 23.09 54.83 23.45 54.55 23.75C54.27 24.05 53.87 24.2 53.34 24.2C52.82 24.2 52.41 24.05 52.12 23.75Z" fill="#FFFFFF" fill-opacity="1.000000" fill-rule="evenodd"/>
	<path id="Line 160 (Stroke)" d="M169.16 34L0.16 34L0.16 33L169.16 33L169.16 34Z" fill="#FFFFFF" fill-opacity="1.000000" fill-rule="evenodd"/>
	<path id="Line 161 (Stroke)" d="M169.16 1L0.16 1L0.16 0L169.16 0L169.16 1Z" fill="#FFFFFF" fill-opacity="1.000000" fill-rule="evenodd"/>
</svg>
