<svg width="41.000000" height="41.000000" viewBox="0 0 41 41" fill="none" xmlns="http://www.w3.org/2000/svg" xmlns:xlink="http://www.w3.org/1999/xlink">
	<desc>
			Created with Pixso.
	</desc>
	<defs/>
	<circle id="Ellipse 119" cx="20.230255" cy="20.230225" r="19.730263" stroke="#FFFFFF" stroke-opacity="1.000000" stroke-width="1.000000"/>
	<g opacity="0.800000">
		<path id="Vector" d="M11.59 13.06L29.4 13.06C29.73 13.06 30 12.59 30 12.03C30 11.46 29.73 11 29.4 11L11.59 11C11.26 11 11 11.46 11 12.03C11 12.59 11.26 13.06 11.59 13.06Z" fill="#FFFFFF" fill-opacity="1.000000" fill-rule="nonzero"/>
		<path id="Vector" d="M29.4 19.06L11.59 19.06C11.26 19.06 11 19.52 11 20.09C11 20.66 11.26 21.12 11.59 21.12L29.4 21.12C29.73 21.12 30 20.66 30 20.09C30 19.52 29.73 19.06 29.4 19.06Z" fill="#FFFFFF" fill-opacity="1.000000" fill-rule="nonzero"/>
		<path id="Vector" d="M29.4 27.12L11.59 27.12C11.26 27.12 11 27.58 11 28.15C11 28.72 11.26 29.18 11.59 29.18L29.4 29.18C29.73 29.18 30 28.72 30 28.15C30 27.58 29.73 27.12 29.4 27.12Z" fill="#FFFFFF" fill-opacity="1.000000" fill-rule="nonzero"/>
	</g>
</svg>
