<svg width="40.000000" height="41.000000" viewBox="0 0 40 41" fill="none" xmlns="http://www.w3.org/2000/svg" xmlns:xlink="http://www.w3.org/1999/xlink">
	<desc>
			Created with Pixso.
	</desc>
	<defs>
		<clipPath id="clip288_119">
			<rect id="Frame" width="17.982456" height="17.982456" transform="translate(10.250000 11.688477)" fill="white" fill-opacity="0"/>
		</clipPath>
	</defs>
	<circle id="Ellipse 119" cx="19.691193" cy="20.230225" r="19.730263" stroke="#FFFFFF" stroke-opacity="1.000000" stroke-width="1.000000"/>
	<rect id="Frame" width="17.982456" height="17.982456" transform="translate(10.250000 11.688477)" fill="#FFFFFF" fill-opacity="0"/>
	<g clip-path="url(#clip288_119)">
		<path id="Vector" d="M26.78 23.49C25.68 23.49 24.6 23.31 23.58 22.98C23.07 22.8 22.49 22.94 22.15 23.28L20.13 24.8C17.79 23.55 16.34 22.11 15.11 19.78L16.59 17.81C16.97 17.43 17.11 16.87 16.95 16.34C16.61 15.31 16.43 14.23 16.43 13.13C16.43 12.33 15.79 11.68 14.99 11.68L11.69 11.68C10.89 11.68 10.25 12.33 10.25 13.13C10.25 22.25 17.66 29.67 26.78 29.67C27.58 29.67 28.23 29.02 28.23 28.22L28.23 24.93C28.23 24.13 27.58 23.49 26.78 23.49ZM27.23 28.22C27.23 28.47 27.03 28.67 26.78 28.67C18.22 28.67 11.24 21.7 11.24 13.13C11.24 12.88 11.44 12.68 11.69 12.68L14.99 12.68C15.24 12.68 15.43 12.88 15.43 13.13C15.43 14.33 15.62 15.52 16 16.64C16.05 16.81 16.01 16.98 15.84 17.16L14.12 19.43C14.01 19.58 13.99 19.79 14.07 19.96C15.47 22.71 17.18 24.42 19.95 25.84C20.12 25.92 20.33 25.91 20.48 25.79L22.81 24.03C22.92 23.91 23.1 23.87 23.26 23.92C24.39 24.3 25.58 24.49 26.78 24.49C27.03 24.49 27.23 24.68 27.23 24.93L27.23 28.22Z" fill="#FFFFFF" fill-opacity="1.000000" fill-rule="nonzero"/>
	</g>
</svg>
